# xmcd
#
# Track frame offsets:
#	150
#	8971
#	22680
#	35484
#	43856
#	56565
#	71566
#	86069
#	98339
#	108090
#	119319
#	132699
#	143995
#	155304
#	167814
#	179006
#	194166
#	206263
#	219524
#	235804
#
# Disc length: 3294 seconds
#
# Revision: 0
# Processed by: cddbd v1.5.2PL0 Copyright (c) Steve Scherf et al.
# Submitted via: audiograbber 1.83.01
#
DISCID=190cdc14
DTITLE=Verschiedene Interpreten - G´müatlich beinand .... G´sunga und g´spielt
DYEAR=2005
DGENRE=Volksmusik
TTITLE0=Poil Soatnmusi - Fritztaler Bayrischer
TTITLE1=Tenglinger Stubnmusi - In der Loamgrui
TTITLE2=Hirschrom Musi - Vronerl Walzer
TTITLE3=Riedertinger Dirndl - Im Fruahjahr
TTITLE4=Tobias popetz - An Lippei seina
TTITLE5=Harfenduo Weinstetter - HochTirol
TTITLE6=Seehaus Musi - Mai-Tanzl
TTITLE7=Tenglinger Stubnmusi - Steyrische Tänze für Zither
TTITLE8=Wolfgang Schwabl - Amalien Polka
TTITLE9=Poil Soatnmusi - Unkener Knödelwalzer
TTITLE10=Riedertinger Dirndl - I hob scho drei Summa
TTITLE11=Seehaus Musi - Holzknecht Boarischer
TTITLE12=Poil Soatnmusi - Der Böhmische
TTITLE13=RiedertingerDirndl - Und endlich is so weit
TTITLE14=Hirschgrom Musi - Fischer Polka
TTITLE15=Katrin Aschaber - Ruberti Weis
TTITLE16=Tobias Popetz  - Leidl´n horchts auf
TTITLE17=Poil Soatnmusi - Menuett aus der Handschrift de J.F. Knaffl
TTITLE18=Riedertinger Dirndl - Nacht wird´s auf der Alm
TTITLE19=Tenglinger Stubnmusi - Spielweise zum Passionssingen
EXTD=
EXTT0=
EXTT1=
EXTT2=
EXTT3=
EXTT4=
EXTT5=
EXTT6=
EXTT7=
EXTT8=
EXTT9=
EXTT10=
EXTT11=
EXTT12=
EXTT13=
EXTT14=
EXTT15=
EXTT16=
EXTT17=
EXTT18=
EXTT19=
PLAYORDER=
